HIERARCHY
ROOT Hips
{
	OFFSET 0.000000 0.000000 0.000000
	CHANNELS 6 Xposition Yposition Zposition Zrotation Yrotation Xrotation 
	JOINT LHipJoint
	{
		OFFSET 0.000000 0.000000 0.000000
		CHANNELS 3 Zrotation Yrotation Xrotation
		JOINT LeftUpLeg
		{
			OFFSET 1.363060 -1.794630 0.839290
			CHANNELS 3 Zrotation Yrotation Xrotation
			JOINT LeftLeg
			{
				OFFSET 2.448110 -6.726130 0.000000
				CHANNELS 3 Zrotation Yrotation Xrotation
				JOINT LeftFoot
				{
					OFFSET 2.562200 -7.039590 0.000000
					CHANNELS 3 Zrotation Yrotation Xrotation
					JOINT LeftToeBase
					{
						OFFSET 0.157640 -0.433110 2.322550
						CHANNELS 3 Zrotation Yrotation Xrotation
						End Site
						{
							OFFSET 0.000000 0.000000 0.000000
						}
					}
				}
			}
		}
	}
	JOINT RHipJoint
	{
		OFFSET 0.000000 0.000000 0.000000
		CHANNELS 3 Zrotation Yrotation Xrotation
		JOINT RightUpLeg
		{
			OFFSET -1.305520 -1.794630 0.839290
			CHANNELS 3 Zrotation Yrotation Xrotation
			JOINT RightLeg
			{
				OFFSET -2.542530 -6.985550 0.000000
				CHANNELS 3 Zrotation Yrotation Xrotation
				JOINT RightFoot
				{
					OFFSET -2.568260 -7.056230 0.000000
					CHANNELS 3 Zrotation Yrotation Xrotation
					JOINT RightToeBase
					{
						OFFSET -0.164730 -0.452590 2.363150
						CHANNELS 3 Zrotation Yrotation Xrotation
						End Site
						{
							OFFSET 0.000000 0.000000 0.000000
						}
					}
				}
			}
		}
	}
	JOINT LowerBack
	{
		OFFSET 0.000000 0.000000 0.000000
		CHANNELS 3 Zrotation Yrotation Xrotation
		JOINT Spine
		{
			OFFSET 0.028270 2.035590 -0.193380
			CHANNELS 3 Zrotation Yrotation Xrotation
			JOINT Spine1
			{
				OFFSET 0.056720 2.048850 -0.042750
				CHANNELS 3 Zrotation Yrotation Xrotation
				JOINT Neck
				{
					OFFSET 0.000000 0.000000 0.000000
					CHANNELS 3 Zrotation Yrotation Xrotation
					JOINT Neck1
					{
						OFFSET -0.054170 1.746240 0.172020
						CHANNELS 3 Zrotation Yrotation Xrotation
						JOINT Head
						{
							OFFSET 0.104070 1.761360 -0.123970
							CHANNELS 3 Zrotation Yrotation Xrotation
							End Site
							{
								OFFSET 0.000000 0.000000 0.000000
							}
						}
					}
				}
				JOINT LeftShoulder
				{
					OFFSET 0.000000 0.000000 0.000000
					CHANNELS 3 Zrotation Yrotation Xrotation
					JOINT LeftArm
					{
						OFFSET 3.362410 1.200890 -0.311210
						CHANNELS 3 Zrotation Yrotation Xrotation
						JOINT LeftForeArm
						{
							OFFSET 4.983000 -0.000000 -0.000000
							CHANNELS 3 Zrotation Yrotation Xrotation
							JOINT LeftHand
							{
								OFFSET 3.483560 -0.000000 -0.000000
								CHANNELS 3 Zrotation Yrotation Xrotation
								JOINT LeftFingerBase
								{
									OFFSET 0.000000 0.000000 0.000000
									CHANNELS 3 Zrotation Yrotation Xrotation
									JOINT LeftHandIndex1
									{
										OFFSET 0.715260 -0.000000 -0.000000
										CHANNELS 3 Zrotation Yrotation Xrotation
										End Site
										{
											OFFSET 0.000000 0.000000 0.000000
										}
									}
								}
								JOINT LThumb
								{
									OFFSET 0.000000 0.000000 0.000000
									CHANNELS 3 Zrotation Yrotation Xrotation
									End Site
									{
										OFFSET 0.000000 0.000000 0.000000
									}
								}
							}
						}
					}
				}
				JOINT RightShoulder
				{
					OFFSET 0.000000 0.000000 0.000000
					CHANNELS 3 Zrotation Yrotation Xrotation
					JOINT RightArm
					{
						OFFSET -3.136600 1.374050 -0.404650
						CHANNELS 3 Zrotation Yrotation Xrotation
						JOINT RightForeArm
						{
							OFFSET -5.241900 -0.000000 -0.000000
							CHANNELS 3 Zrotation Yrotation Xrotation
							JOINT RightHand
							{
								OFFSET -3.444170 -0.000000 -0.000000
								CHANNELS 3 Zrotation Yrotation Xrotation
								JOINT RightFingerBase
								{
									OFFSET 0.000000 0.000000 0.000000
									CHANNELS 3 Zrotation Yrotation Xrotation
									JOINT RightHandIndex1
									{
										OFFSET -0.622530 -0.000000 -0.000000
										CHANNELS 3 Zrotation Yrotation Xrotation
										End Site
										{
											OFFSET 0.000000 0.000000 0.000000
										}
									}
								}
								JOINT RThumb
								{
									OFFSET 0.000000 0.000000 0.000000
									CHANNELS 3 Zrotation Yrotation Xrotation
									End Site
									{
										OFFSET 0.000000 0.000000 0.000000
									}
								}
							}
						}
					}
				}
			}
		}
	}
}
MOTION
Frames: 5
Frame Time: 0.008333
14.367953 17.209572 20.491453 -43.553688 -59.829052 56.768330 -3.981399 -6.074856 -6.136783 1.408915 -3.290416 -47.618731 13.771400 20.847400 70.823162 4.041463 -14.939880 13.482751 0.506400 4.561700 12.662500 7.124241 2.627775 4.584255 29.186609 -12.843593 -6.923121 -0.001196 -8.459743 23.601333 3.845464 -13.062802 -7.031130 -0.995900 6.350900 -17.806000 16.304817 1.123119 18.980875 1.556706 4.470467 -3.142734 1.256893 2.117703 -7.680806 -6.840523 -22.369718 6.965890 18.287005 -34.033078 2.685312 8.280900 -16.862400 8.458100 -4.038496 -0.863276 0.912090 -78.888230 -43.850679 85.054203 78.099719 -58.153015 -53.843470 0.012749 -1.648735 46.568058 19.050145 41.673125 12.462700 -7.125000 0.000000 0.000000 -32.213400 72.412800 -21.596600 0.894648 1.941315 1.325769 83.248032 27.312440 -19.129172 -10.806050 15.995895 -3.276131 3.022700 -0.489859 -34.501639 -46.405473 21.750425 -24.656400 7.125000 0.000000 0.000000 -11.398200 3.198300 -12.256000 
14.399539 17.226546 20.350608 -37.838874 -58.278271 51.923347 -4.282695 -6.193951 -6.030573 0.731082 -4.893541 -46.816290 13.287549 20.778414 69.355008 4.369690 -15.193788 10.379231 0.128700 2.312600 6.370400 7.373692 2.890793 4.477731 29.277739 -14.601347 -8.904422 -0.152586 -8.698156 24.437112 3.315319 -11.810049 -7.556045 -0.840900 5.849300 -16.347900 16.846887 0.012411 18.242282 1.515931 2.953739 -3.212877 0.312670 1.406088 -7.705399 -6.802512 -22.105669 6.833004 18.133754 -33.743810 3.092187 8.312900 -16.735900 8.782800 -4.091294 -0.795782 0.873262 -81.376776 -44.664452 88.339819 74.985293 -57.652210 -51.185240 -0.053697 -1.713725 46.413673 18.552674 42.388869 12.284300 -7.125000 0.000000 0.000000 -34.548200 72.862200 -23.584700 0.640492 1.975282 1.297572 84.495098 26.575331 -18.191839 -10.330892 15.556366 -3.115671 2.971205 -0.500919 -33.288601 -45.859761 20.610632 -23.216900 7.125000 0.000000 0.000000 -11.397200 1.452800 -11.918500 
14.426934 17.262429 20.213737 -32.625883 -56.787291 47.662629 -4.586142 -6.326912 -5.941203 -0.209947 -6.180308 -46.242279 12.735684 20.648358 67.745502 4.642914 -15.199803 7.991819 0.024200 1.004700 2.761700 7.606749 3.084873 4.409315 29.172416 -16.544844 -10.993018 -0.292486 -8.864365 25.026771 3.065012 -11.203841 -7.564165 -0.918500 6.106100 -17.092600 16.987708 -1.014384 17.516237 1.481110 1.489678 -3.294383 -0.375153 0.718804 -7.677784 -6.766032 -21.836383 6.600424 17.959543 -33.346520 3.502642 8.366000 -16.570300 9.036000 -4.175252 -0.767360 0.681896 -83.966557 -45.142614 91.245597 71.772999 -57.066768 -48.451721 -0.098180 -1.798018 46.135188 17.753461 42.068681 11.638800 -7.125000 0.000000 0.000000 -34.926700 72.390600 -23.518100 0.399026 2.037114 1.844312 86.361166 31.513953 -47.969084 -9.708686 12.548428 -2.612993 1.810054 -2.084036 -1.281982 -41.289150 21.131289 -20.307900 7.125000 0.000000 0.000000 -8.359400 0.270100 -8.489400 
14.452289 17.299386 20.068595 -28.357214 -55.078222 44.211255 -4.830689 -6.461768 -5.901186 -1.166338 -6.919584 -45.922640 12.089658 20.443493 65.958780 4.896991 -15.438622 6.739324 0.132300 2.344900 6.459800 7.777287 3.258819 4.321569 29.403768 -18.388415 -12.988602 -0.443381 -9.033973 25.605847 2.981742 -10.991546 -7.415426 -1.070900 6.578400 -18.472200 17.142010 -1.959239 16.773551 1.483504 0.128084 -3.337543 -0.908909 0.068966 -7.778010 -6.796311 -21.572509 6.626198 17.750874 -33.064356 3.913475 8.320000 -16.440000 9.275400 -4.169871 -0.707199 0.715322 -86.483811 -45.421227 94.197291 68.905170 -56.466742 -45.948855 -0.154777 -1.843383 45.574336 17.621111 42.136781 11.589600 -7.125000 0.000000 0.000000 -35.373200 72.462500 -23.892300 0.240158 2.034798 1.210240 86.901304 25.079151 -15.422855 -9.634076 14.997565 -2.857942 2.855562 -0.529441 -31.613873 -44.300361 19.084656 -20.699600 7.125000 0.000000 0.000000 -10.869700 -1.257800 -10.826500 
14.476354 17.332261 19.909378 -24.809752 -53.407021 41.310517 -5.029480 -6.592679 -5.893670 -2.206345 -7.190416 -45.786464 11.420738 20.192032 64.234226 5.035946 -15.606527 6.673972 0.317900 3.624600 10.022800 7.912345 3.385828 4.243658 29.669931 -19.635751 -14.476785 -0.545620 -9.150912 25.994813 2.920757 -10.835775 -7.259837 -1.146900 6.800200 -19.124900 17.110757 -2.729852 16.181843 1.483894 -1.025710 -3.350531 -1.311458 -0.470341 -7.566502 -6.581238 -21.391079 6.304302 17.594391 -32.859536 4.269675 8.218000 -16.321700 9.470900 -4.157772 -0.658700 0.640028 -88.912595 -45.859442 97.476202 66.384841 -55.906317 -43.716339 -0.226424 -1.861235 44.837168 18.073278 42.691834 12.093800 -7.125000 0.000000 0.000000 -36.281100 73.119900 -25.040700 0.094654 2.008536 1.156240 88.006136 24.400391 -13.357511 -9.360012 14.846546 -2.736475 2.772169 -0.549474 -30.605093 -42.984334 18.190443 -19.015800 7.125000 0.000000 0.000000 -10.293000 -2.976300 -9.908200 
